<svg width="64" height="64" viewBox="0 0 64 64" xmlns="http://www.w3.org/2000/svg">
  <!-- Bot/Robot para T-BOT -->
  <defs>
    <linearGradient id="botGradient" x1="0%" y1="0%" x2="100%" y2="100%">
      <stop offset="0%" style="stop-color:#2d5aa0;stop-opacity:1" />
      <stop offset="100%" style="stop-color:#1a2c5a;stop-opacity:1" />
    </linearGradient>
    <linearGradient id="headGradient" x1="0%" y1="0%" x2="100%" y2="100%">
      <stop offset="0%" style="stop-color:#4a7bc8;stop-opacity:1" />
      <stop offset="100%" style="stop-color:#2d5aa0;stop-opacity:1" />
    </linearGradient>
  </defs>
  
  <!-- Cuerpo del bot -->
  <rect x="18" y="35" width="28" height="20" rx="4" fill="url(#headGradient)" stroke="white" stroke-width="1"/>
  
  <!-- Cabeza del bot -->
  <rect x="20" y="15" width="24" height="20" rx="6" fill="url(#headGradient)" stroke="white" stroke-width="1"/>
  
  <!-- Antena -->
  <rect x="31" y="8" width="2" height="8" fill="white"/>
  <circle cx="32" cy="7" r="2" fill="#22B8F9"/>
  
  <!-- Ojos del bot -->
  <circle cx="26" cy="22" r="3" fill="white"/>
  <circle cx="38" cy="22" r="3" fill="white"/>
  <circle cx="26" cy="22" r="1.5" fill="#2d5aa0"/>
  <circle cx="38" cy="22" r="1.5" fill="#2d5aa0"/>
  
  <!-- Boca del bot -->
  <rect x="28" y="28" width="8" height="3" rx="1.5" fill="white"/>
  
  <!-- Brazos -->
  <rect x="12" y="38" width="6" height="8" rx="3" fill="url(#headGradient)"/>
  <rect x="46" y="38" width="6" height="8" rx="3" fill="url(#headGradient)"/>
  
  <!-- Detalles del cuerpo -->
  <circle cx="24" cy="42" r="1.5" fill="white" opacity="0.8"/>
  <circle cx="32" cy="42" r="1.5" fill="white" opacity="0.8"/>
  <circle cx="40" cy="42" r="1.5" fill="white" opacity="0.8"/>
  
  <!-- Piernas/Base -->
  <rect x="22" y="52" width="6" height="6" rx="2" fill="url(#headGradient)"/>
  <rect x="36" y="52" width="6" height="6" rx="2" fill="url(#headGradient)"/>
</svg>
